<svg width="496" height="133" viewBox="0 0 496 133" fill="none" xmlns="http://www.w3.org/2000/svg">
<path d="M496 128.03C496 129.089 495.141 129.948 494.081 129.948H480.384C479.324 129.948 478.465 129.089 478.465 128.03V5.82847C478.465 4.76885 479.324 3.90985 480.384 3.90985H494.081C495.141 3.90985 496 4.76884 496 5.82847V128.03Z" fill="white"/>
<path d="M452.73 129.948C451.935 129.948 451.223 129.459 450.939 128.717L438.382 95.9814C438.097 95.2396 437.385 94.7499 436.59 94.7499H384.181C383.38 94.7499 382.664 95.247 382.383 95.997L370.164 128.701C369.884 129.451 369.168 129.948 368.367 129.948H354.1C352.748 129.948 351.82 128.587 352.314 127.329L400.257 5.12774C400.545 4.39309 401.254 3.90985 402.043 3.90985H419.241C420.03 3.90985 420.739 4.39308 421.027 5.12774L468.97 127.329C469.464 128.587 468.536 129.948 467.184 129.948H452.73ZM412.011 26.7793C411.381 25.1282 409.043 25.1346 408.422 26.789L389.96 75.9801C389.489 77.2345 390.416 78.5729 391.756 78.5729H428.986C430.331 78.5729 431.258 77.2263 430.779 75.9704L412.011 26.7793Z" fill="white"/>
<path d="M256.446 86.9318C256.446 104.531 265.389 117.508 281.17 117.508C296.25 117.508 305.544 104.175 305.544 86.5762C305.544 68.9771 296.425 56.8888 281.345 56.8888C266.265 56.8888 256.446 69.3326 256.446 86.9318ZM305.719 118.397C305.719 118.046 305.228 117.926 305.055 118.232C300.752 125.867 292.064 132.263 279.592 132.263C254.868 132.263 239.612 112.353 239.612 86.9318C239.612 62.7552 255.744 42.1339 279.592 42.1339C288.688 42.1339 295.238 44.9151 299.599 48.6587C301.198 50.0319 305.368 48.7856 305.368 46.6774V3.16566C305.368 2.10604 306.227 1.24704 307.287 1.24704H319.757C320.817 1.24704 321.676 2.10604 321.676 3.16566V114.13C321.676 119.825 321.676 125.261 321.676 128.037C321.676 129.096 320.817 129.952 319.757 129.952H307.638C306.578 129.952 305.719 129.094 305.719 128.035C305.719 125.746 305.719 121.8 305.719 118.397Z" fill="white"/>
<path d="M227.675 128.031C227.675 129.09 226.816 129.949 225.756 129.949H213.286C212.226 129.949 211.367 129.09 211.367 128.031V46.3609C211.367 45.3013 212.226 44.4423 213.286 44.4423H225.756C226.816 44.4423 227.675 45.3013 227.675 46.3609V128.031ZM207.685 12.0883C207.685 5.33307 212.945 0 219.433 0C226.097 0 231.357 5.33307 231.357 12.0883C231.357 18.6658 226.097 23.9988 219.433 23.9988C212.945 23.9988 207.685 18.6658 207.685 12.0883Z" fill="white"/>
<path d="M176.717 127.587C176.717 125.573 173.339 124.516 171.818 125.835C166.496 130.449 158.97 132.619 151.817 132.619C132.178 132.619 120.254 117.687 120.254 98.3097V46.3643C120.254 45.3046 121.113 44.4456 122.173 44.4456H134.818C135.878 44.4456 136.737 45.3046 136.737 46.3643V95.8209C136.737 107.554 141.997 117.864 155.85 117.864C169.177 117.864 175.84 108.976 175.84 95.9987V46.3643C175.84 45.3046 176.699 44.4456 177.758 44.4456H190.404C191.464 44.4456 192.323 45.3046 192.323 46.3643V114.131C192.323 118.976 192.323 125.01 192.323 128.035C192.323 129.094 191.464 129.953 190.404 129.953H178.635C177.576 129.953 176.717 129.095 176.717 128.036C176.717 127.892 176.717 127.742 176.717 127.587Z" fill="white"/>
<path d="M103.062 128.033C103.062 129.093 102.203 129.952 101.144 129.952H88.4982C87.4385 129.952 86.5796 129.093 86.5796 128.033V3.16566C86.5796 2.10604 87.4385 1.24704 88.4982 1.24704H101.144C102.203 1.24704 103.062 2.10604 103.062 3.16566V128.033Z" fill="white"/>
<path d="M17.1842 128.03C17.1842 129.089 16.3252 129.948 15.2656 129.948H1.91862C0.858994 129.948 0 129.089 0 128.03V5.82847C0 4.76885 0.858993 3.90985 1.91861 3.90985H73.6569C74.7165 3.90985 75.5755 4.76884 75.5755 5.82847V18.1682C75.5755 19.2279 74.7165 20.0868 73.6569 20.0868H19.1028C18.0432 20.0868 17.1842 20.9458 17.1842 22.0055V58.6996C17.1842 59.7592 18.0432 60.6182 19.1028 60.6182H68.2211C69.2807 60.6182 70.1397 61.4772 70.1397 62.5368V75.0544C70.1397 76.114 69.2807 76.973 68.2211 76.973H19.1028C18.0432 76.973 17.1842 77.832 17.1842 78.8916V128.03Z" fill="white"/>
</svg>
