<svg width="18" height="18" viewBox="0 0 18 18" fill="none" xmlns="http://www.w3.org/2000/svg">
<path d="M4.0006 3.40868C4.76208 2.72727 5.66362 2.19915 6.65669 1.8728C7.20645 2.5596 8.05188 2.99946 9.00003 2.99946C9.94817 2.99946 10.7936 2.5596 11.3434 1.8728C12.3365 2.19915 13.238 2.72727 13.9994 3.40868C13.6804 4.22775 13.7225 5.17898 14.1962 5.99945C14.6702 6.8204 15.4736 7.33259 16.343 7.46543C16.4459 7.96064 16.5 8.47372 16.5 8.99947C16.5 9.52514 16.4459 10.0383 16.343 10.5334C15.4736 10.6663 14.6702 11.1785 14.1962 11.9995C13.7225 12.8199 13.6804 13.7712 13.9994 14.5902C13.238 15.2716 12.3365 15.7998 11.3434 16.1261C10.7936 15.4393 9.94817 14.9995 9.00003 14.9995C8.05188 14.9995 7.20645 15.4393 6.65669 16.1261C5.66362 15.7998 4.76208 15.2716 4.0006 14.5902C4.31967 13.7712 4.27758 12.8199 3.80388 11.9995C3.3299 11.1785 2.5265 10.6663 1.65704 10.5334C1.55412 10.0383 1.50003 9.52514 1.50003 8.99947C1.50003 8.47372 1.55412 7.96064 1.65704 7.46543C2.5265 7.33259 3.3299 6.8204 3.80388 5.99945C4.27758 5.17898 4.31967 4.22775 4.0006 3.40868ZM10.125 10.948C11.2012 10.3267 11.5699 8.95064 10.9486 7.87447C10.3272 6.79829 8.9512 6.42957 7.87503 7.05089C6.79887 7.67219 6.43015 9.04829 7.05147 10.1245C7.67283 11.2006 9.04885 11.5693 10.125 10.948Z" fill="white"/>
</svg>
