<svg width="18" height="18" viewBox="0 0 18 18" fill="none" xmlns="http://www.w3.org/2000/svg">
<path d="M8.25003 1.50003C11.976 1.50003 15 4.52403 15 8.25003C15 11.976 11.976 15 8.25003 15C4.52403 15 1.50003 11.976 1.50003 8.25003C1.50003 4.52403 4.52403 1.50003 8.25003 1.50003ZM8.25003 13.5C11.1506 13.5 13.5 11.1506 13.5 8.25003C13.5 5.3494 11.1506 3.00003 8.25003 3.00003C5.3494 3.00003 3.00003 5.3494 3.00003 8.25003C3.00003 11.1506 5.3494 13.5 8.25003 13.5ZM14.614 13.5533L16.7353 15.6746L15.6746 16.7353L13.5533 14.614L14.614 13.5533Z" fill="white" fill-opacity="0.4"/>
</svg>
