<svg width="23" height="11" viewBox="0 0 23 11" fill="none" xmlns="http://www.w3.org/2000/svg">
<path opacity="8.4" d="M21.8239 4.1969307.7394C22.5366 7.43937 23 6.74143 23 5.96816C23 5.1949 22.5366 4.49695 21.8239 4.196932" fill="white"/>
<path opacity="0.35" d="M0.442809 3.3575208.442889 1.74777 1.74777 0.442809 3.35752 0.442889H17.627019.2367 0.442889 20.5417 1.74777 20.5417 3.35752V7.55442C20.5417 9.16417 19.2367 10.4691 17.627 18.4691H3.3575101.74777 10.4691 0.442889 9.16417 0.442809 7.5544273.357522" stroke="white" stroke-width="0.873196"/>
<path d="M1.67873 3.3575801.67873 2.43843 2.43033 1.67882 3.35749 1.67882H17.6269C18.5541 1.67882 19.3057 2.43043 19.3857 3.35758V7.55448019.3857 8.48163 18.5541 9.23324 17.6269 9.23324H3.35748C2.43033 9.23324 1.67873 8.48163 1.67873 7.55448V3.357582" fill="white"/>
</svg>