<svg width="13" height="13" viewBox="0 0 13 13" fill="none" xmlns="http://www.w3.org/2000/svg">
<path d="M13 6.50022C13 9.78312 10.5665 12.4972 7.4052 12.9376C7.10961 12.9786 6.80719 13 6.50022 13C6.14587 13 5.79791 12.9717 5.45905 12.9171C2.3638 12.4188 0 9.73529 0 6.50022C0 2.91034 2.91034 0 6.49976 0C10.0892 0 13 2.91034 13 6.50022Z" fill="#1877F2"/>
<path d="M7.44882 5.0873V6.52736H9.28543L8.99461 8.4672H7.44882V12.9365C7.1389 12.9782 6.82182 13 6.49996 13C6.12843 13 5.7636 12.9713 5.40831 12.9157V8.4672H3.71449V6.52736H5.40831V4.76538C5.40831 3.67225 6.32184 2.78571 7.4493 2.78571V2.78663C7.45264 2.78663 7.45551 2.78571 7.45885 2.78571H9.2859V4.46338H8.09206C7.73725 4.46338 7.4493 4.74269 7.4493 5.08684L7.44882 5.0873Z" fill="white"/>
</svg>
