<svg width="194" height="180" viewBox="0 0 194 180" fill="none" xmlns="http://www.w3.org/2000/svg">
<path fill-rule="evenodd" clip-rule="evenodd" d="M49.1306 104.869C59.4666 104.168 70.6823 102.847 77.9574 95.4718C85.7997 87.5212 86.8786 75.3821 85.0619 64.3633C82.2593 47.3651 87.3263 29.293 100.263 16.1779C121.529 -5.38158 156.008 -5.38158 177.274 16.1779C198.54 37.7375 198.54 72.6924 177.274 94.2519C163.87 107.84 145.218 112.864 127.933 109.324C116.962 107.076 104.642 107.918 96.778 115.891C89.9567 122.806 88.7232 133.263 88.5322 142.974C88.3487 152.303 84.7458 161.576 77.7236 168.696C63.3023 183.316 39.9207 183.316 25.4993 168.696C11.078 154.075 11.078 130.371 25.4993 115.751C32.0787 109.08 40.523 105.453 49.1306 104.869ZM55.2555 74.1141C42.6154 86.9286 22.1218 86.9286 9.48175 74.1141C-3.15831 61.2996 -3.15831 40.5232 9.48175 27.7087C22.1218 14.8942 42.6154 14.8942 55.2555 27.7087C67.8955 40.5232 67.8955 61.2996 55.2555 74.1141ZM146.33 165.906C138.162 174.186 124.92 174.186 116.752 165.906C108.585 157.626 108.585 144.201 116.752 135.92C124.92 127.64 138.162 127.64 146.33 135.92C154.497 144.201 154.497 157.626 146.33 165.906Z" fill="white"/>
</svg>
